<svg width="303" height="90" viewBox="0 0 303 90" fill="none" xmlns="http://www.w3.org/2000/svg">
<path d="M100.212 37.9102C100.273 37.4497 100.176 37.3208 100.146 37.2927C100.073 37.2277 99.8651 37.0922 99.2754 36.9188C97.8748 36.5482 96.3876 36.2729 94.8634 36.1017C93.3317 35.9305 91.8118 35.8427 90.3461 35.8427C86.9986 35.8427 84.2007 36.6792 82.0283 38.3307C79.8624 39.9746 78.4336 42.6902 77.7811 46.4005C77.7214 46.64 77.6651 46.9662 77.6098 47.3899C77.5502 47.8299 77.4765 48.2849 77.3898 48.7531C77.2727 49.2797 77.1719 49.8573 77.0873 50.4793C77.0288 50.8857 76.979 51.2876 76.9345 51.6908C76.8933 52.0841 76.8716 52.484 76.8716 52.8785C76.8716 53.9513 77.0071 54.9883 77.2758 55.9582C77.5415 56.9226 77.9578 57.7841 78.5127 58.5188C79.0656 59.2502 79.7941 59.8452 80.6776 60.2863C81.5632 60.7284 82.6484 60.9527 83.9048 60.9527C85.0279 60.9527 86.1249 60.7695 87.1645 60.4066C88.203 60.0446 89.3196 59.4052 90.4806 58.5069L91.0193 58.0897L90.7516 60.0142C90.6919 60.3078 90.783 60.3902 90.8134 60.4173C90.9218 60.5149 91.0529 60.5614 91.2156 60.5614H95.6547C95.8293 60.5614 96.058 60.5355 96.1502 60.4119C96.2585 60.2678 96.3355 60.1009 96.3865 59.9016L100.212 37.9102ZM90.9012 54.0564L90.7863 54.1204C90.0503 54.5321 89.2687 54.8973 88.4643 55.204C87.6393 55.5193 86.8231 55.6786 86.0371 55.6786C84.9542 55.6786 84.2095 55.3719 83.8235 54.7673C83.4625 54.2027 83.2793 53.5232 83.2793 52.7473C83.2793 52.2673 83.3248 51.7688 83.4148 51.2639L84.1976 46.6985C84.5227 44.89 85.0616 43.5018 85.7976 42.5699C86.5608 41.6055 87.7837 41.1168 89.4325 41.1168C90.0438 41.1168 90.6672 41.146 91.2861 41.2046C91.9008 41.2641 92.4124 41.3216 92.8223 41.3812L93.1052 41.4213L90.9012 54.0564Z" fill="#000100"/>
<path d="M124.909 36.1906H118.338C118.2 36.1906 118.037 36.2275 117.854 36.3011C117.676 36.3726 117.484 36.5233 117.282 36.7497L108.659 46.9261L111.973 28.2953C112.016 28.1166 112.004 27.9844 111.94 27.8759C111.895 27.7969 111.735 27.7513 111.506 27.7513H106.24C106 27.7513 105.832 27.8077 105.727 27.9225C105.598 28.0623 105.512 28.2216 105.464 28.4123L99.8988 59.973C99.8587 60.1919 99.8803 60.3403 99.9639 60.4151C100.071 60.5137 100.202 60.5614 100.365 60.5614H105.631C105.792 60.5614 105.943 60.4932 106.095 60.3523C106.259 60.2006 106.361 60.0381 106.406 59.8582L108.299 49.0663L113.109 59.8116C113.208 60.0382 113.339 60.2267 113.499 60.3741C113.637 60.4997 113.781 60.5615 113.943 60.5615H120.34C120.618 60.5615 120.651 60.4662 120.664 60.425C120.713 60.2776 120.711 60.1573 120.657 60.049L114.434 47.7834L125.012 36.636C125.136 36.5104 125.197 36.4009 125.197 36.3044C125.197 36.2675 125.197 36.1906 124.909 36.1906Z" fill="#000100"/>
<path d="M134.389 36.6522C134.389 36.3109 134.268 36.1906 133.927 36.1906H128.617C128.456 36.1906 128.311 36.2523 128.175 36.3781C128.025 36.5157 127.931 36.6696 127.885 36.8506L123.8 60.0164L123.804 60.1432C123.804 60.452 123.914 60.5614 124.222 60.5614H129.531C129.697 60.5614 129.851 60.4975 130.002 60.3675C130.163 60.2299 130.263 60.0782 130.307 59.9015L134.389 36.6522Z" fill="#000100"/>
<path d="M145.899 28.1696C145.899 27.8607 145.789 27.7512 145.48 27.7512H140.171C140.005 27.7512 139.851 27.8152 139.699 27.9452C139.539 28.0828 139.44 28.2346 139.396 28.4112L133.829 59.9729L133.834 60.0553C133.834 60.2179 133.875 60.3424 133.958 60.4356C134.007 60.4898 134.095 60.5613 134.297 60.5613H139.605C139.762 60.5613 139.904 60.4953 140.04 60.3598C140.194 60.2059 140.291 60.0412 140.338 59.858L145.899 28.1696Z" fill="#000100"/>
<path d="M156.31 28.1696C156.31 27.8607 156.201 27.7512 155.892 27.7512H150.582C150.416 27.7512 150.262 27.8152 150.11 27.9452C149.95 28.0828 149.851 28.2346 149.807 28.4112L144.24 59.9729L144.245 60.0553C144.245 60.2179 144.286 60.3424 144.369 60.4356C144.418 60.4898 144.506 60.5613 144.708 60.5613H150.016C150.173 60.5613 150.315 60.4953 150.451 60.3598C150.605 60.2059 150.702 60.0412 150.749 59.858L156.31 28.1696Z" fill="#000100"/>
<path d="M165.416 36.6522C165.416 36.3109 165.295 36.1906 164.953 36.1906H159.645C159.482 36.1906 159.338 36.2513 159.202 36.377C159.053 36.5146 158.958 36.6696 158.912 36.8517L154.826 60.0164L154.83 60.1432C154.83 60.452 154.94 60.5614 155.249 60.5614H160.559C160.723 60.5614 160.877 60.4975 161.03 60.3675C161.189 60.231 161.289 60.0782 161.334 59.9015L165.416 36.6522Z" fill="#000100"/>
<path d="M181.712 39.5964H186.567C187.524 39.5964 187.782 39.0189 187.852 38.6754L187.939 38.2398L187.945 38.0014C187.945 37.5365 187.731 37.3425 187.549 37.2602C187.374 37.1843 187.16 37.1453 186.915 37.1453H182.175L182.81 33.4339V33.2161C182.81 32.6255 182.473 32.2734 181.91 32.2734H181.432C181.104 32.2734 180.83 32.3915 180.62 32.6223C180.437 32.8217 180.308 33.0719 180.234 33.3776L179.586 37.1454H175.513C175.242 37.1454 174.994 37.191 174.776 37.2798C174.497 37.3968 174.313 37.6449 174.229 38.0242L174.135 38.5227V38.6971C174.135 38.9085 174.21 39.5966 175.165 39.5966H179.121L176.144 56.3429C176.053 56.8544 176.007 57.3279 176.007 57.7505C176.007 59.0801 176.429 60.0423 177.262 60.6135C178.056 61.1574 179.166 61.4338 180.562 61.4338C180.942 61.4338 181.338 61.4262 181.75 61.4099C182.173 61.3948 182.554 61.3568 182.885 61.2961C183.28 61.2235 183.544 61.1119 183.714 60.9429C183.878 60.7782 183.982 60.5712 184.024 60.3263L184.072 60.0121V59.882C184.072 59.3966 183.751 59.2275 183.613 59.1787C183.416 59.1061 183.194 59.0692 182.955 59.0692H180.866C180.099 59.0692 179.496 58.9826 179.077 58.8125C178.752 58.6803 178.589 58.2652 178.589 57.5761C178.589 57.3128 178.631 56.9368 178.713 56.46L181.712 39.5964Z" fill="#000100"/>
<path d="M192.833 37.1453H192.354C191.916 37.1453 191.609 37.2786 191.443 37.5386C191.321 37.7294 191.228 37.958 191.156 38.2473L187.325 59.9599C187.265 60.337 187.328 60.6362 187.511 60.8506C187.694 61.0642 187.975 61.1725 188.351 61.1725H188.612C189.079 61.1725 189.394 61.0479 189.577 60.7943C189.719 60.6004 189.823 60.3663 189.896 60.0705L193.729 38.3578C193.791 37.958 193.731 37.647 193.547 37.4346C193.386 37.2428 193.145 37.1453 192.833 37.1453Z" fill="#000100"/>
<path d="M195.07 29.3139C194.891 29.0798 194.586 28.9616 194.164 28.9616H193.902C193.611 28.9616 193.35 29.0289 193.125 29.1589C192.858 29.316 192.693 29.6108 192.618 30.0583L192.203 32.2733C192.124 32.6288 192.164 32.9224 192.32 33.1456C192.489 33.3883 192.785 33.5065 193.224 33.5065H193.486C193.783 33.5065 194.049 33.4285 194.279 33.2757C194.528 33.1109 194.694 32.8183 194.77 32.4088L195.183 30.2058C195.279 29.8363 195.241 29.536 195.07 29.3139Z" fill="#000100"/>
<path d="M213.006 38.788L213.049 38.4836L213.054 38.218C213.054 37.9525 212.926 37.4844 212.067 37.324C211.167 37.2081 210.239 37.1117 209.308 37.039C208.361 36.9654 207.533 36.9274 206.845 36.9274C205.243 36.9274 203.802 37.1853 202.563 37.6936C201.319 38.2028 200.247 38.9397 199.376 39.8857C198.512 40.823 197.794 41.9597 197.24 43.2645C196.688 44.5627 196.272 46.0223 196.004 47.6044L195.514 50.5161C195.333 51.5759 195.241 52.6194 195.241 53.6175C195.241 54.7433 195.38 55.7988 195.654 56.7556C195.935 57.7266 196.382 58.5664 196.987 59.2523C197.593 59.9416 198.371 60.4844 199.3 60.8637C200.222 61.2419 201.341 61.4337 202.624 61.4337C203.324 61.4337 204.152 61.3968 205.152 61.3232C206.148 61.2484 207.116 61.152 208.038 61.0361C208.421 60.9656 208.694 60.855 208.873 60.6957C209.057 60.5321 209.184 60.3003 209.264 59.9719L209.312 59.6208V59.4907C209.312 59.3 209.24 58.678 208.323 58.678L208.109 58.6824C206.045 58.9392 204.302 59.0692 202.929 59.0692C201.067 59.0692 199.739 58.6185 198.983 57.7288C198.213 56.8261 197.823 55.4878 197.823 53.7486C197.823 53.2577 197.851 52.7571 197.907 52.263C197.966 51.7374 198.039 51.1859 198.123 50.6267L198.602 47.7128C198.8 46.4948 199.108 45.3538 199.518 44.3232C199.922 43.3046 200.457 42.4085 201.113 41.6564C201.76 40.912 202.535 40.3257 203.418 39.9118C204.297 39.5 205.347 39.2919 206.541 39.2919C207.912 39.2919 209.617 39.4231 211.633 39.6831H211.806C212.092 39.6831 212.344 39.6257 212.554 39.5108C212.808 39.3711 212.964 39.1207 213.006 38.788Z" fill="#000100"/>
<path d="M231.635 37.7629H231.634C230.703 37.5603 229.574 37.3684 228.277 37.1929C226.971 37.0174 225.675 36.9274 224.426 36.9274C222.89 36.9274 221.513 37.1322 220.335 37.5342C219.145 37.9395 218.099 38.5962 217.225 39.4848C216.359 40.368 215.632 41.5079 215.067 42.8755C214.509 44.2257 214.049 45.8728 213.697 47.7734L212.827 52.6889C212.68 53.5113 212.604 54.2341 212.604 54.8355C212.604 55.9484 212.774 56.9269 213.108 57.745C213.442 58.5674 213.916 59.2664 214.518 59.8223C215.115 60.3749 215.831 60.7867 216.643 61.0468C217.444 61.3036 218.32 61.4336 219.247 61.4336C220.594 61.4336 221.934 61.1454 223.231 60.5787C224.265 60.1278 225.29 59.6434 226.284 59.1385L226.142 59.9263C226.11 59.9956 226.093 60.0683 226.093 60.143C226.093 60.7878 226.462 61.1724 227.08 61.1724H227.428C227.75 61.1724 228.034 61.051 228.271 60.8137C228.488 60.5981 228.636 60.337 228.712 60.0271L232.418 38.9147C232.418 38.8854 232.421 38.8713 232.42 38.8713C232.447 38.7933 232.461 38.7055 232.461 38.6101C232.461 38.3643 232.354 37.9277 231.635 37.7629ZM219.683 59.0692C219.062 59.0692 218.47 59.014 217.92 58.9024C217.391 58.7973 216.916 58.5903 216.508 58.288C216.107 57.9911 215.785 57.5675 215.549 57.0288C215.307 56.4816 215.186 55.7437 215.186 54.8356C215.186 54.2689 215.256 53.5861 215.397 52.8059L216.268 47.8884C216.749 45.1175 217.611 42.959 218.83 41.4733C220.02 40.0256 221.8 39.292 224.122 39.292C225.147 39.292 226.204 39.3495 227.261 39.4632C228.172 39.5618 228.976 39.6723 229.655 39.7916L226.738 56.4892C225.255 57.2814 223.958 57.9174 222.882 58.3801C221.811 58.8373 220.734 59.0692 219.683 59.0692Z" fill="#000100"/>
<path d="M245.614 39.1132C245.897 38.9972 246.082 38.7284 246.166 38.3037L246.211 37.9363L246.213 37.7836C246.213 37.2526 245.871 37.0814 245.723 37.0326C245.51 36.9622 245.232 36.9275 244.878 36.9275C243.776 36.9275 242.732 37.0879 241.772 37.4021C240.996 37.6568 240.119 38.0599 239.162 38.6039L239.204 38.3796L239.208 38.332C239.237 38.2637 239.251 38.1824 239.251 38.0881C239.251 37.4976 238.882 37.1453 238.264 37.1453H237.916C237.594 37.1453 237.309 37.2667 237.069 37.504C236.855 37.7197 236.707 37.9808 236.63 38.2908L232.795 60.0121V60.1432C232.795 60.7879 233.18 61.1726 233.825 61.1726H234.086C234.404 61.1726 234.685 61.0621 234.921 60.8442C235.142 60.6405 235.293 60.3848 235.371 60.0706L238.737 41.1732C240.095 40.4211 241.233 39.9075 242.121 39.6463C243.029 39.3819 243.898 39.2486 244.704 39.2486C245.1 39.2486 245.398 39.2042 245.614 39.1132Z" fill="#000100"/>
<path d="M261.833 39.1066C261.222 38.4196 260.431 37.8778 259.483 37.4952C258.543 37.1192 257.416 36.9274 256.131 36.9274C253.148 36.9274 250.691 37.8452 248.834 39.655C246.988 41.4494 245.752 44.1227 245.159 47.6044L244.682 50.4706C244.591 50.9799 244.531 51.4979 244.503 52.0105C244.472 52.5197 244.457 53.0019 244.457 53.4441C244.457 54.8453 244.669 56.0665 245.084 57.0732C245.504 58.0907 246.107 58.9316 246.877 59.572C247.64 60.2081 248.554 60.6838 249.593 60.9851C250.623 61.282 251.759 61.4338 252.972 61.4338C253.959 61.4338 255.062 61.3655 256.25 61.2311C257.429 61.0967 258.588 60.9071 259.691 60.6686C260.057 60.6014 260.305 60.5257 260.47 60.4302C260.685 60.3078 260.838 60.0521 260.951 59.6294L261.018 59.3748C261.071 59.2653 261.096 59.1223 261.096 58.9251C261.096 58.7658 261.034 58.2436 260.24 58.2436C260.026 58.2436 259.865 58.2631 259.778 58.2956C258.685 58.5254 257.549 58.6987 256.4 58.8103C253.818 59.0682 251.973 59.0346 250.59 58.7096C249.846 58.5362 249.201 58.2371 248.674 57.8232C248.159 57.4146 247.755 56.8479 247.473 56.1403C247.185 55.4186 247.04 54.4769 247.04 53.3402C247.04 52.9468 247.068 52.5156 247.123 52.0593C247.183 51.5825 247.24 51.084 247.296 50.5725L247.386 49.9494H261.762C262.071 49.9494 262.36 49.8443 262.619 49.6384C262.882 49.4336 263.054 49.1725 263.134 48.8496L263.351 47.6695C263.529 46.6141 263.62 45.6009 263.62 44.657C263.62 43.5593 263.476 42.5234 263.191 41.5796C262.901 40.6259 262.445 39.7937 261.833 39.1066ZM252.78 39.8695V39.8684C253.648 39.4858 254.679 39.2919 255.845 39.2919C257.736 39.2919 259.086 39.734 259.86 40.6074C260.642 41.4917 261.038 42.8159 261.038 44.5421C261.038 44.9907 261.011 45.4447 260.953 45.9324C260.897 46.4135 260.824 46.9379 260.739 47.4983H247.81C248.063 46.2694 248.409 45.1456 248.839 44.1553C249.288 43.1236 249.846 42.2372 250.5 41.5188C251.145 40.808 251.912 40.2521 252.78 39.8695Z" fill="#000100"/>
<path d="M279.587 37.2613L279.585 37.2602C279.41 37.1843 279.198 37.1453 278.951 37.1453H274.211L274.846 33.4339V33.2161C274.846 32.6255 274.509 32.2734 273.947 32.2734H273.468C273.139 32.2734 272.866 32.3915 272.656 32.6223C272.473 32.8217 272.344 33.0719 272.27 33.3776L271.621 37.1454H267.549C267.278 37.1454 267.03 37.191 266.811 37.2798C266.532 37.3979 266.348 37.6471 266.265 38.0242L266.172 38.5227V38.6971C266.172 38.9085 266.246 39.5966 267.202 39.5966H271.156L268.179 56.3441C268.089 56.8588 268.043 57.3323 268.043 57.7506C268.043 59.0781 268.465 60.0414 269.297 60.6136C270.093 61.1576 271.203 61.4339 272.598 61.4339C272.978 61.4339 273.374 61.4263 273.786 61.41C274.213 61.3949 274.584 61.358 274.921 61.2963C275.312 61.2237 275.583 61.1088 275.749 60.9441C275.914 60.7783 276.018 60.5713 276.06 60.3264L276.108 60.0122V59.8822C276.108 59.5387 275.94 59.283 275.649 59.1789C275.453 59.1063 275.232 59.0694 274.991 59.0694H272.902C272.135 59.0694 271.532 58.9827 271.113 58.8126C270.789 58.6816 270.625 58.2653 270.625 57.5763C270.625 57.3075 270.667 56.9325 270.749 56.4601L273.748 39.5966H278.603C279.558 39.5966 279.817 39.0202 279.888 38.6756L279.978 38.2096L279.981 38.0016C279.981 37.5354 279.767 37.3414 279.587 37.2613Z" fill="#000100"/>
<path d="M33.2532 67.6519C32.2617 66.6372 31.4642 65.3321 30.883 63.7736C30.3064 62.231 30.0141 60.3869 30.0141 58.2926C30.0141 57.0279 30.1509 55.6577 30.4198 54.2247L31.5976 47.7493C32.1354 44.8377 32.9813 42.3647 34.1117 40.3994C35.2484 38.4206 36.6281 36.8003 38.2124 35.5836C39.7936 34.3701 41.5709 33.4876 43.4956 32.9604C44.699 32.6316 45.9394 32.4064 47.2021 32.2853L33.7519 24.523C29.6347 22.1467 24.4881 25.117 24.4881 29.8694V65.5124C24.4881 70.2649 29.6347 73.235 33.7519 70.8589L35.9595 69.5848C34.9477 69.1025 34.039 68.4564 33.2532 67.6519Z" fill="url(#paint0_linear_201_2)"/>
<path d="M49.3993 38.6355C46.2386 38.6355 43.8134 39.4677 42.191 41.1089C40.5293 42.7899 39.3934 45.3184 38.8149 48.6238L37.6364 55.3646C37.5539 55.8168 37.4913 56.2962 37.4507 56.7908C37.4092 57.2858 37.3882 57.769 37.3882 58.2271C37.3882 60.5053 37.8593 62.0852 38.789 62.9231C39.7553 63.7949 40.8938 64.2186 42.2696 64.2186C43.6752 64.2186 45.0839 63.9117 46.4564 63.3067C47.8145 62.7075 49.3478 61.8488 51.0173 60.7525L54.8095 39.1277C54.1796 39.0153 53.526 38.9139 52.8575 38.8247C51.9151 38.6992 50.7516 38.6355 49.3993 38.6355Z" fill="url(#paint1_linear_201_2)"/>
<path d="M64.6315 42.3444L61.9394 40.7908L59.2492 56.1436L64.6315 53.0373C68.7487 50.6611 68.7487 44.7206 64.6315 42.3444Z" fill="url(#paint2_linear_201_2)"/>
<path d="M33.2532 67.6519C32.2617 66.6372 31.4642 65.3321 30.883 63.7736C30.3064 62.231 30.0141 60.3869 30.0141 58.2926C30.0141 57.0279 30.1509 55.6577 30.4198 54.2247L31.5976 47.7493C32.1354 44.8377 32.9813 42.3647 34.1117 40.3994C35.2484 38.4206 36.6281 36.8003 38.2124 35.5836C39.3799 34.6875 40.6551 33.9733 42.0169 33.448C40.6629 33.9488 39.375 34.645 38.1741 35.5323C36.5245 36.7518 35.0388 38.4022 33.7584 40.438C32.4853 42.4596 31.4447 45.0244 30.6658 48.0606C30.6658 48.0606 29.2602 53.0645 29.0171 54.3789C28.7741 55.6931 28.3107 57.7409 28.1998 59.0682C28.0163 61.2661 28.1394 63.212 28.5657 64.8518C28.9952 66.5084 29.6576 67.9069 30.5343 69.0077C31.2518 69.9091 32.1121 70.6376 33.0941 71.1866C33.2024 71.1397 33.3105 71.0898 33.4178 71.0368C33.5298 70.9807 33.6414 70.9227 33.7519 70.8589L35.9595 69.5848C34.9477 69.1025 34.039 68.4564 33.2532 67.6519Z" fill="#603A8D"/>
<path d="M49.2135 39.14C50.5306 39.189 51.6581 39.2978 52.565 39.4636C53.2082 39.5814 53.8359 39.7115 54.4395 39.8523L48.9457 62.0294C49.6097 61.6477 50.2999 61.2235 51.0173 60.7525L54.8095 39.1277C54.1796 39.0153 53.526 38.9139 52.8575 38.8247C51.9151 38.6992 50.7516 38.6355 49.3993 38.6355C46.2386 38.6355 43.8134 39.4677 42.191 41.1089C41.775 41.5298 41.392 42.0039 41.0424 42.5298C41.3402 42.1506 41.6482 41.7918 41.9765 41.4749C43.7004 39.8112 46.1352 39.0256 49.2135 39.14Z" fill="#603A8D"/>
<defs>
<linearGradient id="paint0_linear_201_2" x1="11.2769" y1="59.8858" x2="13.6785" y2="16.6461" gradientUnits="userSpaceOnUse">
<stop stop-color="#0047D6"/>
<stop offset="0.8588" stop-color="#01D6FF"/>
</linearGradient>
<linearGradient id="paint1_linear_201_2" x1="3.2542" y1="78.368" x2="9.71974" y2="-2.50808" gradientUnits="userSpaceOnUse">
<stop stop-color="#0047D6"/>
<stop offset="0.8588" stop-color="#01D6FF"/>
</linearGradient>
<linearGradient id="paint2_linear_201_2" x1="-359.004" y1="128.765" x2="-350.256" y2="-6.29743" gradientUnits="userSpaceOnUse">
<stop stop-color="#0047D6"/>
<stop offset="0.86" stop-color="#01D6FF"/>
</linearGradient>
</defs>
</svg>
