<svg width="238" height="51" viewBox="0 0 238 51" fill="none" xmlns="http://www.w3.org/2000/svg">
<g clip-path="url(#clip0_106_2)">
<path d="M18.25 39.375C19.9529 39.375 21.3334 37.9946 21.3334 36.2917C21.3334 34.5888 19.9529 33.2083 18.25 33.2083C16.5471 33.2083 15.1667 34.5888 15.1667 36.2917C15.1667 37.9946 16.5471 39.375 18.25 39.375Z" stroke="#FF0000" stroke-width="2" stroke-linecap="round" stroke-linejoin="round"/>
<path d="M35.2083 39.375C36.9112 39.375 38.2917 37.9946 38.2917 36.2917C38.2917 34.5888 36.9112 33.2083 35.2083 33.2083C33.5055 33.2083 32.125 34.5888 32.125 36.2917C32.125 37.9946 33.5055 39.375 35.2083 39.375Z" stroke="#FF0000" stroke-width="2" stroke-linecap="round" stroke-linejoin="round"/>
<path d="M35.2084 33.2083H18.25V11.625H15.1667" stroke="#FF0000" stroke-width="2" stroke-linecap="round" stroke-linejoin="round"/>
<path d="M18.25 14.7083L39.8333 16.25L38.2917 27.0417H18.25" stroke="#FF0000" stroke-width="2" stroke-linecap="round" stroke-linejoin="round"/>
</g>
<path d="M63.9489 15.3636V35H61.6477L50.9474 19.5824H50.7557V35H48.3778V15.3636H50.679L61.4176 30.8196H61.6094V15.3636H63.9489ZM76.0614 28.9787V20.2727H78.3242V35H76.0614V32.5071H75.908C75.5628 33.255 75.0259 33.891 74.2972 34.4151C73.5685 34.9329 72.648 35.1918 71.5358 35.1918C70.6154 35.1918 69.7972 34.9904 69.0813 34.5877C68.3654 34.1786 67.8029 33.565 67.3938 32.7468C66.9847 31.9222 66.7801 30.8835 66.7801 29.6307V20.2727H69.0429V29.4773C69.0429 30.5511 69.3433 31.4077 69.9442 32.0469C70.5514 32.6861 71.3249 33.0057 72.2645 33.0057C72.827 33.0057 73.3991 32.8619 73.9808 32.5742C74.5688 32.2866 75.061 31.8455 75.4573 31.2511C75.86 30.6566 76.0614 29.8991 76.0614 28.9787ZM82.5361 20.2727L86.0645 26.294L89.5929 20.2727H92.2009L87.4452 27.6364L92.2009 35H89.5929L86.0645 29.2855L82.5361 35H79.9281L84.6071 27.6364L79.9281 20.2727H82.5361ZM100.214 20.2727V22.1903H92.5824V20.2727H100.214ZM94.8068 16.7443H97.0696V30.7812C97.0696 31.4205 97.1623 31.8999 97.3477 32.2195C97.5394 32.5327 97.7823 32.7436 98.0763 32.8523C98.3768 32.9545 98.6932 33.0057 99.0256 33.0057C99.2749 33.0057 99.4794 32.9929 99.6392 32.9673C99.799 32.9354 99.9268 32.9098 100.023 32.8906L100.483 34.9233C100.33 34.9808 100.115 35.0384 99.8406 35.0959C99.5657 35.1598 99.2173 35.1918 98.7955 35.1918C98.1562 35.1918 97.5298 35.0543 96.9162 34.7795C96.3089 34.5046 95.804 34.0859 95.4013 33.5234C95.005 32.9609 94.8068 32.2514 94.8068 31.3949V16.7443Z" fill="#FF0000"/>
<path d="M118.394 21.7493H115.402C115.287 21.1101 115.073 20.5476 114.76 20.0618C114.447 19.576 114.063 19.1637 113.609 18.8249C113.156 18.4861 112.647 18.2305 112.085 18.0579C111.529 17.8853 110.938 17.799 110.311 17.799C109.18 17.799 108.167 18.0835 107.272 18.6523C106.383 19.2212 105.68 20.0554 105.162 21.1548C104.651 22.2543 104.395 23.5966 104.395 25.1818C104.395 26.7798 104.651 28.1286 105.162 29.228C105.68 30.3274 106.386 31.1584 107.281 31.7209C108.176 32.2834 109.183 32.5646 110.302 32.5646C110.922 32.5646 111.51 32.4815 112.066 32.3153C112.628 32.1428 113.136 31.8903 113.59 31.5579C114.044 31.2255 114.428 30.8196 114.741 30.3402C115.06 29.8544 115.281 29.2983 115.402 28.6719L118.394 28.6815C118.234 29.6467 117.924 30.5352 117.464 31.3469C117.01 32.1523 116.425 32.8491 115.709 33.4371C115 34.0188 114.188 34.4695 113.274 34.7891C112.36 35.1087 111.363 35.2685 110.282 35.2685C108.582 35.2685 107.067 34.8658 105.738 34.0604C104.408 33.2486 103.36 32.0884 102.593 30.5799C101.832 29.0714 101.452 27.272 101.452 25.1818C101.452 23.0852 101.835 21.2859 102.602 19.7837C103.369 18.2752 104.418 17.1183 105.747 16.3129C107.077 15.5011 108.588 15.0952 110.282 15.0952C111.324 15.0952 112.296 15.2454 113.197 15.5458C114.105 15.8398 114.92 16.2745 115.642 16.8498C116.364 17.4187 116.962 18.1154 117.435 18.94C117.908 19.7582 118.228 20.6946 118.394 21.7493ZM126.292 35.2972C124.912 35.2972 123.707 34.9808 122.678 34.348C121.649 33.7152 120.85 32.8299 120.281 31.6921C119.712 30.5543 119.427 29.2248 119.427 27.7035C119.427 26.1758 119.712 24.8398 120.281 23.6957C120.85 22.5515 121.649 21.663 122.678 21.0302C123.707 20.3974 124.912 20.081 126.292 20.081C127.673 20.081 128.878 20.3974 129.907 21.0302C130.936 21.663 131.735 22.5515 132.304 23.6957C132.873 24.8398 133.157 26.1758 133.157 27.7035C133.157 29.2248 132.873 30.5543 132.304 31.6921C131.735 32.8299 130.936 33.7152 129.907 34.348C128.878 34.9808 127.673 35.2972 126.292 35.2972ZM126.302 32.8906C127.197 32.8906 127.938 32.6541 128.526 32.1811C129.114 31.7081 129.549 31.0785 129.83 30.2923C130.118 29.506 130.262 28.6399 130.262 27.6939C130.262 26.7543 130.118 25.8913 129.83 25.1051C129.549 24.3125 129.114 23.6765 128.526 23.1971C127.938 22.7177 127.197 22.478 126.302 22.478C125.401 22.478 124.653 22.7177 124.058 23.1971C123.47 23.6765 123.032 24.3125 122.745 25.1051C122.464 25.8913 122.323 26.7543 122.323 27.6939C122.323 28.6399 122.464 29.506 122.745 30.2923C123.032 31.0785 123.47 31.7081 124.058 32.1811C124.653 32.6541 125.401 32.8906 126.302 32.8906ZM134.737 35V20.2727H137.489V22.6697H137.671C137.978 21.858 138.48 21.2251 139.177 20.7713C139.873 20.3111 140.708 20.081 141.679 20.081C142.664 20.081 143.488 20.3111 144.153 20.7713C144.824 21.2315 145.32 21.8643 145.639 22.6697H145.793C146.144 21.8835 146.703 21.2571 147.47 20.7905C148.237 20.3175 149.152 20.081 150.213 20.081C151.549 20.081 152.638 20.4996 153.482 21.337C154.332 22.1744 154.757 23.4368 154.757 25.1243V35H151.891V25.3928C151.891 24.3956 151.619 23.6733 151.076 23.2259C150.532 22.7784 149.883 22.5547 149.129 22.5547C148.196 22.5547 147.47 22.8423 146.953 23.4176C146.435 23.9865 146.176 24.7184 146.176 25.6133V35H143.319V25.2106C143.319 24.4116 143.07 23.7692 142.571 23.2834C142.072 22.7976 141.424 22.5547 140.625 22.5547C140.081 22.5547 139.579 22.6985 139.119 22.9862C138.665 23.2674 138.298 23.6605 138.017 24.1655C137.742 24.6705 137.604 25.2553 137.604 25.9201V35H134.737ZM156.98 35V20.2727H159.732V22.6697H159.914C160.221 21.858 160.722 21.2251 161.419 20.7713C162.116 20.3111 162.95 20.081 163.922 20.081C164.906 20.081 165.73 20.3111 166.395 20.7713C167.066 21.2315 167.562 21.8643 167.881 22.6697H168.035C168.386 21.8835 168.946 21.2571 169.713 20.7905C170.48 20.3175 171.394 20.081 172.455 20.081C173.791 20.081 174.881 20.4996 175.724 21.337C176.575 22.1744 177 23.4368 177 25.1243V35H174.133V25.3928C174.133 24.3956 173.861 23.6733 173.318 23.2259C172.775 22.7784 172.126 22.5547 171.371 22.5547C170.438 22.5547 169.713 22.8423 169.195 23.4176C168.677 23.9865 168.418 24.7184 168.418 25.6133V35H165.561V25.2106C165.561 24.4116 165.312 23.7692 164.813 23.2834C164.315 22.7976 163.666 22.5547 162.867 22.5547C162.324 22.5547 161.822 22.6985 161.362 22.9862C160.908 23.2674 160.54 23.6605 160.259 24.1655C159.984 24.6705 159.847 25.2553 159.847 25.9201V35H156.98ZM185.569 35.2972C184.118 35.2972 182.869 34.9872 181.82 34.3672C180.779 33.7408 179.973 32.8619 179.404 31.7305C178.842 30.5927 178.561 29.2599 178.561 27.7322C178.561 26.2237 178.842 24.8942 179.404 23.7436C179.973 22.593 180.766 21.695 181.782 21.0494C182.805 20.4038 184 20.081 185.368 20.081C186.199 20.081 187.004 20.2184 187.784 20.4933C188.564 20.7681 189.264 21.1996 189.884 21.7876C190.504 22.3757 190.993 23.1396 191.351 24.0792C191.709 25.0124 191.888 26.147 191.888 27.483V28.4993H180.181V26.3516H189.079C189.079 25.5973 188.925 24.9293 188.618 24.3477C188.312 23.7596 187.88 23.2962 187.324 22.9574C186.774 22.6186 186.129 22.4492 185.387 22.4492C184.582 22.4492 183.879 22.6474 183.278 23.0437C182.683 23.4336 182.223 23.945 181.897 24.5778C181.578 25.2042 181.418 25.8849 181.418 26.62V28.2979C181.418 29.2823 181.59 30.1197 181.936 30.81C182.287 31.5004 182.776 32.0277 183.402 32.392C184.029 32.75 184.761 32.929 185.598 32.929C186.141 32.929 186.637 32.8523 187.084 32.6989C187.532 32.5391 187.918 32.3026 188.244 31.9893C188.57 31.6761 188.82 31.2894 188.992 30.8292L191.706 31.3182C191.488 32.1172 191.098 32.8171 190.536 33.418C189.98 34.0124 189.28 34.4759 188.436 34.8082C187.599 35.1342 186.643 35.2972 185.569 35.2972ZM193.449 35V20.2727H196.22V22.6122H196.373C196.642 21.8196 197.115 21.1964 197.792 20.7425C198.476 20.2823 199.25 20.0522 200.112 20.0522C200.291 20.0522 200.502 20.0586 200.745 20.0714C200.995 20.0842 201.19 20.1001 201.33 20.1193V22.8615C201.215 22.8295 201.011 22.7944 200.717 22.756C200.422 22.7113 200.128 22.6889 199.834 22.6889C199.157 22.6889 198.553 22.8327 198.022 23.1204C197.498 23.4016 197.083 23.7947 196.776 24.2997C196.469 24.7983 196.316 25.3672 196.316 26.0064V35H193.449ZM207.867 35.2972C206.442 35.2972 205.215 34.9744 204.185 34.3288C203.163 33.6768 202.376 32.7788 201.827 31.6346C201.277 30.4904 201.002 29.18 201.002 27.7035C201.002 26.2077 201.283 24.8878 201.846 23.7436C202.408 22.593 203.201 21.695 204.224 21.0494C205.246 20.4038 206.451 20.081 207.838 20.081C208.957 20.081 209.954 20.2887 210.83 20.7042C211.706 21.1133 212.412 21.6886 212.949 22.43C213.492 23.1715 213.815 24.0376 213.917 25.0284H211.127C210.974 24.3381 210.622 23.7436 210.072 23.245C209.529 22.7464 208.8 22.4972 207.886 22.4972C207.087 22.4972 206.387 22.7081 205.787 23.13C205.192 23.5455 204.729 24.1399 204.396 24.9134C204.064 25.6804 203.898 26.5881 203.898 27.6364C203.898 28.7102 204.061 29.6371 204.387 30.4169C204.713 31.1967 205.173 31.8008 205.767 32.229C206.368 32.6573 207.075 32.8714 207.886 32.8714C208.43 32.8714 208.922 32.7724 209.363 32.5742C209.81 32.3697 210.184 32.0788 210.485 31.7017C210.792 31.3246 211.006 30.8707 211.127 30.3402H213.917C213.815 31.2926 213.505 32.1428 212.987 32.8906C212.469 33.6385 211.776 34.2266 210.907 34.6548C210.044 35.0831 209.031 35.2972 207.867 35.2972ZM221.71 35.2972C220.259 35.2972 219.01 34.9872 217.961 34.3672C216.92 33.7408 216.114 32.8619 215.545 31.7305C214.983 30.5927 214.701 29.2599 214.701 27.7322C214.701 26.2237 214.983 24.8942 215.545 23.7436C216.114 22.593 216.907 21.695 217.923 21.0494C218.946 20.4038 220.141 20.081 221.509 20.081C222.34 20.081 223.145 20.2184 223.925 20.4933C224.705 20.7681 225.405 21.1996 226.025 21.7876C226.645 22.3757 227.134 23.1396 227.492 24.0792C227.85 25.0124 228.029 26.147 228.029 27.483V28.4993H216.322V26.3516H225.22C225.22 25.5973 225.066 24.9293 224.759 24.3477C224.453 23.7596 224.021 23.2962 223.465 22.9574C222.915 22.6186 222.27 22.4492 221.528 22.4492C220.723 22.4492 220.02 22.6474 219.419 23.0437C218.824 23.4336 218.364 23.945 218.038 24.5778C217.719 25.2042 217.559 25.8849 217.559 26.62V28.2979C217.559 29.2823 217.731 30.1197 218.076 30.81C218.428 31.5004 218.917 32.0277 219.543 32.392C220.17 32.75 220.902 32.929 221.739 32.929C222.282 32.929 222.778 32.8523 223.225 32.6989C223.673 32.5391 224.059 32.3026 224.385 31.9893C224.711 31.6761 224.961 31.2894 225.133 30.8292L227.847 31.3182C227.629 32.1172 227.239 32.8171 226.677 33.418C226.121 34.0124 225.421 34.4759 224.577 34.8082C223.74 35.1342 222.784 35.2972 221.71 35.2972Z" fill="#FF7575"/>
<defs>
<clipPath id="clip0_106_2">
<rect width="37" height="37" fill="white" transform="translate(9 7)"/>
</clipPath>
</defs>
</svg>
